# xmcd CD database file
#
# Track frame offsets:
#	150
#	25052
#	53595
#	75103
#	109100
#	131202
#	150049
#	163385
#	186007
#
# Disc length: 2797 seconds
#
# Revision: 0
# Processed by: cddbd v1.5.1PL2 Copyright (c) Steve Scherf et al.
# Submitted via: CDex 1.51
#
DISCID=5f0aeb09
DTITLE=Tito Oliva Jazz Trio - Transcordillerano
DYEAR=2005
DGENRE=Jazz
TTITLE0=Jazz Cordillerano
TTITLE1=Estaba en el Vino
TTITLE2=Andamios
TTITLE3=Empezando de Cero
TTITLE4=Final de Juego
TTITLE5=Apuesta Fuerte
TTITLE6=Transcordillerano
TTITLE7=Airecito
TTITLE8=Fiesta en la Luna Nueva
EXTD=YEAR: 2005
EXTT0=
EXTT1=
EXTT2=
EXTT3=
EXTT4=
EXTT5=
EXTT6=
EXTT7=
EXTT8=
PLAYORDER=
